<svg xmlns="http://www.w3.org/2000/svg" viewBox="0 0 40 40"><defs><style>.a{fill:#32cd32;}</style></defs><title>Artboard 1</title><path class="a" d="M24.5,20.6a1.22,1.22,0,0,0-1.6.5,5.91,5.91,0,0,1-4.6,3.2,6.89,6.89,0,0,1-4.6-1.1,6,6,0,0,1-2.5-4.1,6.35,6.35,0,0,1,4.1-6.8,1.22,1.22,0,0,0,.7-1.4,1.42,1.42,0,0,0-1.6-.7,8.77,8.77,0,0,0-5.7,9.4A8.32,8.32,0,0,0,12,25.1a8.16,8.16,0,0,0,5.1,1.6,4.12,4.12,0,0,0,1.2-.1,9.47,9.47,0,0,0,6.4-4.4A1,1,0,0,0,24.5,20.6Z"/><path class="a" d="M18.8,4.6a2.3,2.3,0,1,0-2.3-2.3A2.3,2.3,0,0,0,18.8,4.6Z"/><path class="a" d="M31.1,21.8l-3.9-6.7a1.49,1.49,0,0,0-1.4-.8h-4L21,10.2l.7.5a1.14,1.14,0,0,0,.8.3h3.1a1,1,0,0,0,1.1-1.1,1,1,0,0,0-1.1-1.1H23L19.9,6.1,19.8,6c-.3-.2-.8-.5-1.2-.3a1.32,1.32,0,0,0-1.2,1.6L19,16a1.46,1.46,0,0,0,1.6,1.2H25l3.3,5.9a1.6,1.6,0,0,0,1.4.8,3.09,3.09,0,0,0,.8-.2C31.2,23.5,31.4,22.5,31.1,21.8Z"/></svg>