<?xml version="1.0" encoding="utf-8"?>
<!-- Generator: Adobe Illustrator 17.1.0, SVG Export Plug-In . SVG Version: 6.00 Build 0)  -->
<!DOCTYPE svg PUBLIC "-//W3C//DTD SVG 1.1//EN" "http://www.w3.org/Graphics/SVG/1.1/DTD/svg11.dtd">
<svg version="1.1" id="Layer_1" xmlns="http://www.w3.org/2000/svg" xmlns:xlink="http://www.w3.org/1999/xlink" x="0px" y="0px"
	 viewBox="4 2 40 40" enable-background="new 4 2 40 40" xml:space="preserve">
<g>
	<path fill="#0A5B7F" d="M28.5,22.6C28,22.3,27.3,22.4,27,23c-0.9,1.8-2.7,3-4.6,3.2c-1.6,0.2-3.2-0.2-4.6-1.1
		c-1.4-1-2.2-2.5-2.5-4.1c-0.5-2.8,1.4-5.8,4.1-6.8c0.5-0.2,0.9-0.9,0.7-1.5c-0.3-0.5-0.9-0.9-1.5-0.7c-3.9,1.4-6.2,5.2-5.7,9.4
		c0.3,2.2,1.5,4.2,3.4,5.5c1.5,1.1,3.2,1.6,5.1,1.6c0.5,0,0.9,0,1.2-0.2c2.7-0.5,5-2.1,6.4-4.4C29.3,23.6,29.1,22.9,28.5,22.6z"/>
	<circle fill="#0A5B7F" cx="22.9" cy="4.2" r="2.2"/>
	<path fill="#0A5B7F" d="M35.1,23.8l-3.9-6.7c-0.2-0.5-0.8-0.8-1.4-0.8h-4L25,12.3l0.7,0.5c0.2,0.2,0.5,0.3,0.8,0.3h3.1
		c0.7,0,1.1-0.5,1.1-1.1c0-0.7-0.5-1.1-1.1-1.1H27l-3.1-2.7l-0.2-0.2c-0.3-0.2-0.8-0.5-1.2-0.3c-0.8,0-1.4,0.9-1.2,1.6l1.7,8.7
		c0.2,0.8,0.8,1.2,1.5,1.2h4.5l3.4,5.8c0.3,0.5,0.8,0.8,1.4,0.8c0.2,0,0.5-0.2,0.8-0.2C35.2,25.5,35.4,24.4,35.1,23.8z"/>
</g>
</svg>
