<?xml version="1.0" encoding="utf-8"?>
<!-- Generator: Adobe Illustrator 17.1.0, SVG Export Plug-In . SVG Version: 6.00 Build 0)  -->
<!DOCTYPE svg PUBLIC "-//W3C//DTD SVG 1.1//EN" "http://www.w3.org/Graphics/SVG/1.1/DTD/svg11.dtd">
<svg version="1.1" id="Layer_1" xmlns="http://www.w3.org/2000/svg" xmlns:xlink="http://www.w3.org/1999/xlink" x="0px" y="0px"
	 viewBox="0 0 44 44" enable-background="new 0 0 44 44" xml:space="preserve">
<g>
	<g>
		<g>
			<circle fill="#FF4F2E" cx="22" cy="22" r="22"/>
		</g>
	</g>
	<g>
		<g>
			
				<line fill="none" stroke="#FFFFFF" stroke-width="1.823" stroke-linecap="round" stroke-miterlimit="10" x1="18.9" y1="19.2" x2="29" y2="19.2"/>
		</g>
		<path fill="#FFFFFF" d="M9.7,35.1c0.3,0.3,0.7,0.4,1,0.4s0.8-0.1,1-0.4l6-6c0.2-0.2,0.4-0.6,0.4-0.9c1.7,1.1,3.6,1.7,5.8,1.7
			c5.9,0,10.7-4.8,10.7-10.7S29.9,8.4,24,8.4s-10.7,4.8-10.7,10.7c0,2.9,1.2,5.6,3.1,7.5c-0.2,0.1-0.4,0.2-0.6,0.3l-6,6
			C9.2,33.6,9.2,34.6,9.7,35.1z M24,28c-4.8,0-8.8-3.9-8.8-8.8c0-4.8,3.9-8.8,8.8-8.8s8.8,3.9,8.8,8.8C32.7,24,28.8,28,24,28z"/>
	</g>
</g>
</svg>
