<?xml version="1.0" encoding="utf-8"?>
<!-- Generator: Adobe Illustrator 17.1.0, SVG Export Plug-In . SVG Version: 6.00 Build 0)  -->
<!DOCTYPE svg PUBLIC "-//W3C//DTD SVG 1.1//EN" "http://www.w3.org/Graphics/SVG/1.1/DTD/svg11.dtd">
<svg version="1.1" id="Layer_1" xmlns="http://www.w3.org/2000/svg" xmlns:xlink="http://www.w3.org/1999/xlink" x="0px" y="0px"
	 viewBox="0 0 44 44" enable-background="new 0 0 44 44" xml:space="preserve">
<g>
	<g>
		<g>
			<circle fill="#FF4F2E" cx="22" cy="22" r="22"/>
		</g>
	</g>
	<g>
		<g>
			
				<line fill="none" stroke="#FFFFFF" stroke-width="1.823" stroke-linecap="round" stroke-miterlimit="10" x1="20" y1="14.1" x2="20" y2="24.2"/>
			
				<line fill="none" stroke="#FFFFFF" stroke-width="1.823" stroke-linecap="round" stroke-miterlimit="10" x1="25.1" y1="19.2" x2="15" y2="19.2"/>
		</g>
		<path fill="#FFFFFF" d="M34.3,33l-6-6c-0.2-0.2-0.4-0.3-0.6-0.3c1.9-1.9,3.1-4.6,3.1-7.5C30.8,13.3,26,8.4,20,8.4
			S9.3,13.3,9.3,19.2S14.1,29.9,20,29.9c2.1,0,4.1-0.6,5.8-1.7c0,0.3,0.2,0.6,0.4,0.9l6,6c0.3,0.3,0.7,0.4,1,0.4s0.8-0.1,1-0.4
			C34.8,34.6,34.8,33.6,34.3,33z M11.3,19.2c0-4.8,3.9-8.8,8.8-8.8s8.8,3.9,8.8,8.8c0,4.8-3.9,8.8-8.8,8.8S11.3,24,11.3,19.2z"/>
	</g>
</g>
</svg>
